<svg id="Layer_1" data-name="Layer 1" xmlns="http://www.w3.org/2000/svg" xmlns:xlink="http://www.w3.org/1999/xlink" viewBox="0 0 298.94 350.64"><defs><style>.cls-1{fill:none;}.cls-2{clip-path:url(#clip-path);}.cls-3{fill:#fff;}.cls-4,.cls-5{fill:#2a2827;}.cls-4{stroke:#000;stroke-miterlimit:10;stroke-width:4px;}</style><clipPath id="clip-path" transform="translate(-0.08 0.08)"><rect class="cls-1" width="299" height="416"/></clipPath></defs><title>Cat</title><g class="cls-2"><path class="cls-3" d="M245.93,36.73c-.31-3.14-1.78-17.89-7.44-32.23A7.11,7.11,0,0,0,229.57.31c-5.35,1.89-13.84,7-24.75,20.52a7.07,7.07,0,0,1-5.56,2.61H99.53A7.23,7.23,0,0,1,94,20.83C83.17,7.43,74.67,2.3,69.32.42a7.09,7.09,0,0,0-8.91,4.19,116.2,116.2,0,0,0-7,32A6.75,6.75,0,0,1,53.17,38c-40.69,150.39-48.24,280.79-22,302.76C55.27,361,135.39,344,148,341.17a8,8,0,0,1,3.15,0c12.58,2.83,92.71,19.89,116.83-.42,26.22-22,19.08-152.16-21.61-302.66A4.18,4.18,0,0,1,245.93,36.73Z" transform="translate(-0.08 0.08)"/><path class="cls-3" d="M134.55,190.05c14.08,0,25.49-12.32,25.49-27.52S148.63,135,134.55,135s-25.48,12.33-25.48,27.53S120.48,190.05,134.55,190.05Z" transform="translate(-0.08 0.08)"/><path class="cls-3" d="M167.07,188.8c14.07,0,25.48-12.33,25.48-27.53s-11.41-27.52-25.48-27.52-25.49,12.32-25.49,27.52S153,188.8,167.07,188.8Z" transform="translate(-0.08 0.08)"/><path class="cls-4" d="M224.54,52.43C196.33,54,172.21,60.7,161.19,69.07a16.9,16.9,0,0,1-10.06,3.66h-3.25a16.9,16.9,0,0,1-10.07-3.66c-11-8.37-35.14-15.07-63.35-16.64C35.24,50.23,2.83,58.92,2.1,71.69c-.32,5.13,4.72,10.25,13.32,14.54A12.83,12.83,0,0,1,22.65,97l1.68,36.53c.42,10.57,9.23,16.22,19.4,19.57a182.51,182.51,0,0,0,59.78,4.6l3.36-.31a46.11,46.11,0,0,0,14-3.35c6.5-2.82,11.85-7.12,13-14.44,0,0,5.34-30.46,8.39-48a7.22,7.22,0,0,1,7.23-6.07h.11a7.41,7.41,0,0,1,7.13,6.07c3,17.58,8.39,48,8.39,48,1.15,7.32,6.61,11.62,13,14.44a43.17,43.17,0,0,0,14.06,3.35l3.35.31a182.72,182.72,0,0,0,59.78-4.6c10.18-3.35,19-9,19.4-19.57L276.45,97a12.68,12.68,0,0,1,7.24-10.78c8.6-4.29,13.63-9.41,13.32-14.54C296.27,58.92,263.87,50.23,224.54,52.43Z" transform="translate(-0.08 0.08)"/><path class="cls-5" d="M182,174.88c-3.88,8.16-8.71,13.5-15.94,13.5-5.87,0-11.43-3.46-15.52-9.74l-1.05-1.57-1,1.57c-4.09,6.28-9.65,9.74-15.52,9.74-7.24,0-11.33-5.34-15.31-13.5H111.8c4.3,10.57,12.06,17.79,21.08,17.79,6.19,0,12.06-1.36,16.57-7.54,4.51,6.18,10.38,7.54,16.57,7.54,8.91,0,16.78-7.12,21.08-17.79Z" transform="translate(-0.08 0.08)"/></g></svg>