<svg xmlns="http://www.w3.org/2000/svg" viewBox="0 0 255.05 397.54"><title>CatBodyNoodles</title><path d="M219.49,35.13a121.06,121.06,0,0,0-7.06-30.79,6.75,6.75,0,0,0-8.52-4c-5.14,1.82-13.2,6.72-23.57,19.56a6.77,6.77,0,0,1-5.26,2.52H79.86a6.77,6.77,0,0,1-5.26-2.52C64.24,7.11,56.18,2.21,51,.39a6.75,6.75,0,0,0-8.53,4A114.34,114.34,0,0,0,35.8,34.94a6.58,6.58,0,0,1-.21,1.25c-38.85,143.73-46,268.31-21,289.27,23,19.33,99.39,3.08,111.39.37a6.72,6.72,0,0,1,3,0c12,2.71,88.38,19,111.39-.37,25-21,18.21-145.43-20.65-289.17A6.73,6.73,0,0,1,219.49,35.13Z" fill="#fff"/><ellipse cx="127.42" cy="290.86" rx="92.2" ry="24.3" fill="#fdd99f" stroke="#000" stroke-miterlimit="10" stroke-width="5"/><polygon points="238.86 224.3 117.64 244.26 116.06 234.64 236.75 211.47 238.86 224.3" fill="#88664b" stroke="#a67c52" stroke-miterlimit="10" stroke-width="3"/><polygon points="239.93 265.17 117.2 259.66 117.64 249.92 240.51 252.18 239.93 265.17" fill="#88664b" stroke="#a67c52" stroke-miterlimit="10" stroke-width="3"/><path d="M127.42,395c25.05,0,45.37,2.56,45.37-24.45H82.06C82.06,397.53,102.37,395,127.42,395Z" fill="#fff" stroke="#000" stroke-miterlimit="10" stroke-width="5"/><path d="M127.42,315.16c-49.34,0-89.62-10.21-92.08-23.05h-.12c0,50.07,13,90.67,92.2,90.67,75.51,0,92.2-40.59,92.2-90.67h-.12C217,304.95,176.76,315.16,127.42,315.16Z" fill="#fff" stroke="#000" stroke-miterlimit="10" stroke-width="5"/></svg>