<svg width="391" height="270" viewBox="0 0 391 270" fill="none" xmlns="http://www.w3.org/2000/svg">
<g clip-path="url(#clip0)">
<path d="M292.849 36.809C292.535 33.6694 291.067 18.9132 285.403 4.57555C284.04 1.01731 280.055 -0.866467 276.489 0.389383C271.14 2.27316 262.645 7.40121 251.738 20.9016C250.375 22.576 248.382 23.5179 246.18 23.5179H196.364H196.049H146.443C144.346 23.5179 142.248 22.576 140.885 20.9016C130.083 7.50586 121.588 2.37781 116.239 0.494037C112.673 -0.761812 108.688 1.12196 107.325 4.6802C101.766 18.9132 100.508 33.4601 100.298 36.7044C100.298 37.123 100.193 37.5416 100.088 38.0649C59.3966 188.453 51.8456 318.852 78.0645 340.829C102.186 361.027 182.311 344.073 194.896 341.248C195.945 341.038 196.993 341.038 198.042 341.248C210.627 344.073 290.752 361.132 314.873 340.829C341.092 318.852 333.961 188.662 293.269 38.1695C292.954 37.6462 292.954 37.2276 292.849 36.809Z" fill="white"/>
<path d="M313.195 203.418L186.086 224.349L184.408 214.198L310.993 190.022L313.195 203.418Z" fill="#88664B" stroke="#A67C52" stroke-width="3" stroke-miterlimit="10"/>
<g opacity="0.95">
<path opacity="0.95" d="M231.078 326.177H221.115C221.115 317.91 219.437 313.933 217.549 309.433C215.452 304.514 213.144 298.967 213.144 288.502C213.144 278.037 215.452 272.385 217.549 267.571C219.437 263.071 221.115 259.199 221.115 250.827C221.115 242.559 219.437 238.582 217.549 234.082C215.452 229.163 213.144 223.616 213.144 213.151C213.144 202.686 215.452 197.034 217.549 192.22C219.437 187.72 221.115 183.848 221.115 175.476H231.078C231.078 186.046 228.771 191.592 226.673 196.406C224.785 200.907 223.107 204.779 223.107 213.151C223.107 221.523 224.785 225.396 226.673 229.896C228.771 234.814 231.078 240.361 231.078 250.827C231.078 261.397 228.771 266.943 226.673 271.757C224.785 276.257 223.107 280.13 223.107 288.502C223.107 296.874 224.785 300.747 226.673 305.247C228.666 310.061 231.078 315.607 231.078 326.177Z" fill="#FEC05E"/>
</g>
<g opacity="0.95">
<path opacity="0.95" d="M211.152 326.177H201.189C201.189 317.91 199.511 313.933 197.623 309.433C195.525 304.514 193.218 298.967 193.218 288.502C193.218 278.037 195.525 272.385 197.623 267.571C199.511 263.071 201.189 259.199 201.189 250.827C201.189 242.559 199.511 238.582 197.623 234.082C195.525 229.163 193.218 223.616 193.218 213.151C193.218 202.686 195.525 197.034 197.623 192.22C199.511 187.72 201.189 183.848 201.189 175.476H211.152C211.152 186.046 208.844 191.592 206.747 196.406C204.859 200.907 203.181 204.779 203.181 213.151C203.181 221.523 204.859 225.396 206.747 229.896C208.844 234.814 211.152 240.361 211.152 250.827C211.152 261.397 208.844 266.943 206.747 271.757C204.859 276.257 203.181 280.13 203.181 288.502C203.181 296.874 204.859 300.747 206.747 305.247C208.844 310.061 211.152 315.607 211.152 326.177Z" fill="#FEC05E"/>
</g>
<path d="M221.115 326.177H211.152C211.152 317.91 209.474 313.933 207.586 309.433C205.488 304.514 203.181 298.967 203.181 288.502C203.181 278.037 205.488 272.385 207.586 267.571C209.474 263.071 211.152 259.199 211.152 250.827C211.152 242.559 209.474 238.582 207.586 234.082C205.488 229.163 203.181 223.616 203.181 213.151C203.181 202.686 205.488 197.034 207.586 192.22C209.474 187.72 211.152 183.848 211.152 175.476H221.115C221.115 186.046 218.808 191.592 216.71 196.406C214.822 200.907 213.144 204.779 213.144 213.151C213.144 221.523 214.822 225.396 216.71 229.896C218.808 234.814 221.115 240.361 221.115 250.827C221.115 261.397 218.808 266.943 216.71 271.757C214.822 276.257 213.144 280.13 213.144 288.502C213.144 296.874 214.822 300.747 216.71 305.247C218.703 310.061 221.115 315.607 221.115 326.177Z" fill="#EBA840"/>
<g opacity="0.95">
<path opacity="0.95" d="M191.225 326.177H181.262C181.262 317.91 179.584 313.933 177.696 309.433C175.599 304.514 173.292 298.967 173.292 288.502C173.292 278.037 175.599 272.385 177.696 267.571C179.584 263.071 181.262 259.199 181.262 250.827C181.262 242.559 179.584 238.582 177.696 234.082C175.599 229.163 173.292 223.616 173.292 213.151C173.292 202.686 175.599 197.034 177.696 192.22C179.584 187.72 181.262 183.848 181.262 175.476H191.225C191.225 186.046 188.918 191.592 186.82 196.406C184.933 200.907 183.255 204.779 183.255 213.151C183.255 221.523 184.933 225.396 186.82 229.896C188.918 234.814 191.225 240.361 191.225 250.827C191.225 261.397 188.918 266.943 186.82 271.757C184.933 276.257 183.255 280.13 183.255 288.502C183.255 296.874 184.933 300.747 186.82 305.247C188.918 310.061 191.225 315.607 191.225 326.177Z" fill="#FEC05E"/>
</g>
<path d="M201.188 326.177H191.225C191.225 317.91 189.547 313.933 187.659 309.433C185.562 304.514 183.255 298.967 183.255 288.502C183.255 278.037 185.562 272.385 187.659 267.571C189.547 263.071 191.225 259.199 191.225 250.827C191.225 242.559 189.547 238.582 187.659 234.082C185.562 229.163 183.255 223.616 183.255 213.151C183.255 202.686 185.562 197.034 187.659 192.22C189.547 187.72 191.225 183.848 191.225 175.476H201.188C201.188 186.046 198.881 191.592 196.784 196.406C194.896 200.907 193.218 204.779 193.218 213.151C193.218 221.523 194.896 225.396 196.784 229.896C198.881 234.814 201.188 240.361 201.188 250.827C201.188 261.397 198.881 266.943 196.784 271.757C194.896 276.257 193.218 280.13 193.218 288.502C193.218 296.874 194.896 300.747 196.784 305.247C198.881 310.061 201.188 315.607 201.188 326.177Z" fill="#EBA840"/>
<g opacity="0.95">
<path opacity="0.95" d="M171.299 326.177H161.336C161.336 317.91 159.658 313.933 157.77 309.433C155.672 304.514 153.365 298.967 153.365 288.502C153.365 278.037 155.672 272.385 157.77 267.571C159.658 263.071 161.336 259.199 161.336 250.827C161.336 242.559 159.658 238.582 157.77 234.082C155.672 229.163 153.365 223.616 153.365 213.151C153.365 202.686 155.672 197.034 157.77 192.22C159.658 187.72 161.336 183.848 161.336 175.476H171.299C171.299 186.046 168.992 191.592 166.894 196.406C165.006 200.907 163.328 204.779 163.328 213.151C163.328 221.523 165.006 225.396 166.894 229.896C168.992 234.814 171.299 240.361 171.299 250.827C171.299 261.397 168.992 266.943 166.894 271.757C165.006 276.257 163.328 280.13 163.328 288.502C163.328 296.874 165.006 300.747 166.894 305.247C168.992 310.061 171.299 315.607 171.299 326.177Z" fill="#FEC05E"/>
</g>
<path d="M181.262 326.177H171.299C171.299 317.91 169.621 313.933 167.733 309.433C165.636 304.514 163.328 298.967 163.328 288.502C163.328 278.037 165.636 272.385 167.733 267.571C169.621 263.071 171.299 259.199 171.299 250.827C171.299 242.559 169.621 238.582 167.733 234.082C165.636 229.163 163.328 223.616 163.328 213.151C163.328 202.686 165.636 197.034 167.733 192.22C169.621 187.72 171.299 183.848 171.299 175.476H181.262C181.262 186.046 178.955 191.592 176.857 196.406C174.97 200.907 173.292 204.779 173.292 213.151C173.292 221.523 174.97 225.396 176.857 229.896C178.955 234.814 181.262 240.361 181.262 250.827C181.262 261.397 178.955 266.943 176.857 271.757C174.97 276.257 173.292 280.13 173.292 288.502C173.292 296.874 174.97 300.747 176.857 305.247C178.955 310.061 181.262 315.607 181.262 326.177Z" fill="#EBA840"/>
<path d="M181.472 190.127C195.547 190.127 206.957 177.804 206.957 162.603C206.957 147.402 195.547 135.079 181.472 135.079C167.397 135.079 155.987 147.402 155.987 162.603C155.987 177.804 167.397 190.127 181.472 190.127Z" fill="white"/>
<path d="M213.983 188.871C228.058 188.871 239.468 176.548 239.468 161.347C239.468 146.146 228.058 133.823 213.983 133.823C199.908 133.823 188.499 146.146 188.499 161.347C188.499 176.548 199.908 188.871 213.983 188.871Z" fill="white"/>
<path d="M271.455 52.5067C243.243 54.0765 219.122 60.7744 208.11 69.1467C205.174 71.3444 201.713 72.8096 198.042 72.8096H194.791C191.12 72.8096 187.659 71.3444 184.723 69.1467C173.711 60.7744 149.59 54.0765 121.378 52.5067C82.1546 50.309 49.7481 58.9952 49.0139 71.763C48.6993 76.8911 53.7333 82.0191 62.3331 86.31C66.5281 88.403 69.3598 92.4846 69.5695 97.0893L71.2475 133.614C71.667 144.184 80.4766 149.835 90.6495 153.184C110.156 157.998 130.397 159.568 150.429 157.789L153.785 157.475C158.609 157.056 163.433 156.01 167.838 154.126C174.34 151.3 179.689 147.009 180.842 139.684C180.842 139.684 186.191 109.229 189.232 91.6473C189.862 88.0891 192.903 85.4727 196.469 85.5774H196.574C200.139 85.682 203.076 88.1937 203.705 91.6473C206.747 109.229 212.095 139.684 212.095 139.684C213.249 147.009 218.702 151.3 225.1 154.126C229.505 156.114 234.329 157.056 239.153 157.475L242.509 157.789C262.54 159.568 282.676 157.998 302.288 153.184C312.461 149.835 321.271 144.184 321.69 133.614L323.368 97.0893C323.578 92.3799 326.41 88.403 330.605 86.31C339.204 82.0191 344.238 76.8911 343.924 71.763C343.19 58.9952 310.783 50.309 271.455 52.5067Z" fill="#2A2827" stroke="black" stroke-width="4" stroke-miterlimit="10"/>
<path d="M314.349 246.222L185.562 240.466L186.086 230.209L314.873 232.617L314.349 246.222Z" fill="#88664B" stroke="#A67C52" stroke-width="3" stroke-miterlimit="10"/>
<path d="M228.876 174.952C224.995 183.115 220.171 188.453 212.935 188.453C207.061 188.453 201.503 184.999 197.413 178.72L196.364 177.15L195.315 178.72C191.225 184.999 185.667 188.453 179.794 188.453C172.557 188.453 168.467 183.115 164.482 174.952H158.714C163.014 185.522 170.775 192.743 179.794 192.743C185.981 192.743 191.855 191.383 196.364 185.208C200.874 191.383 206.747 192.743 212.935 192.743C221.849 192.743 229.715 185.627 234.014 174.952H228.876Z" fill="#2A2827"/>
</g>
<defs>
<clipPath id="clip0">
<rect width="391" height="270" fill="white"/>
</clipPath>
</defs>
</svg>
