<svg width="299" height="416" viewBox="0 0 299 416" fill="none" xmlns="http://www.w3.org/2000/svg">
<g clip-path="url(#clip0)">
<path d="M245.933 36.7338C245.618 33.5942 244.15 18.838 238.487 4.50035C237.124 0.942112 233.138 -0.941662 229.572 0.314187C224.224 2.19796 215.729 7.32601 204.822 20.8264C203.458 22.5009 201.466 23.4427 199.263 23.4427H149.448H149.133H99.5269C97.4294 23.4427 95.3319 22.5009 93.9685 20.8264C83.1663 7.43066 74.6714 2.30261 69.3228 0.418841C65.757 -0.837008 61.7717 1.04677 60.4083 4.605C54.8499 18.838 53.5914 33.3849 53.3817 36.6292C53.3817 37.0478 53.2768 37.4664 53.1719 37.9897C12.4803 188.378 4.92921 318.777 31.1481 340.754C55.2694 360.952 135.394 343.998 147.979 341.173C149.028 340.963 150.077 340.963 151.126 341.173C163.711 343.998 243.836 361.057 267.957 340.754C294.176 318.777 287.044 188.587 246.353 38.0943C246.038 37.571 246.038 37.1524 245.933 36.7338Z" fill="white"/>
<path d="M149.448 329.87C202.851 329.87 246.143 318.484 246.143 304.439C246.143 290.394 202.851 279.008 149.448 279.008C96.0442 279.008 52.7523 290.394 52.7523 304.439C52.7523 318.484 96.0442 329.87 149.448 329.87Z" fill="#FDD99F" stroke="black" stroke-width="5" stroke-miterlimit="10"/>
<path d="M266.279 203.343L139.17 224.274L137.492 214.122L264.077 189.947L266.279 203.343Z" fill="#88664B" stroke="#A67C52" stroke-width="3" stroke-miterlimit="10"/>
<path d="M149.447 413.383C175.771 413.383 197.061 416.104 197.061 387.743H101.834C101.834 416 123.124 413.383 149.447 413.383Z" fill="white" stroke="black" stroke-width="5" stroke-miterlimit="10"/>
<path d="M149.448 329.87C97.7439 329.87 55.4791 319.195 52.8572 305.695H52.7523C52.7523 358.127 66.3861 400.616 149.448 400.616C228.629 400.616 246.143 358.127 246.143 305.695H246.038C243.416 319.091 201.151 329.87 149.448 329.87Z" fill="white" stroke="black" stroke-width="5" stroke-miterlimit="10"/>
<g opacity="0.95">
<path opacity="0.95" d="M184.161 326.102H174.198C174.198 317.835 172.52 313.858 170.632 309.358C168.535 304.439 166.228 298.892 166.228 288.427C166.228 277.961 168.535 272.31 170.632 267.496C172.52 262.996 174.198 259.124 174.198 250.751C174.198 242.484 172.52 238.507 170.632 234.007C168.535 229.088 166.228 223.541 166.228 213.076C166.228 202.61 168.535 196.959 170.632 192.145C172.52 187.645 174.198 183.773 174.198 175.4H184.161C184.161 185.97 181.854 191.517 179.756 196.331C177.869 200.831 176.191 204.704 176.191 213.076C176.191 221.448 177.869 225.32 179.756 229.821C181.854 234.739 184.161 240.286 184.161 250.751C184.161 261.321 181.854 266.868 179.756 271.682C177.869 276.182 176.191 280.054 176.191 288.427C176.191 296.799 177.869 300.671 179.756 305.171C181.749 309.986 184.161 315.532 184.161 326.102Z" fill="#FEC05E"/>
</g>
<g opacity="0.95">
<path opacity="0.95" d="M164.235 326.102H154.272C154.272 317.835 152.594 313.858 150.706 309.358C148.609 304.439 146.301 298.892 146.301 288.427C146.301 277.961 148.609 272.31 150.706 267.496C152.594 262.996 154.272 259.124 154.272 250.751C154.272 242.484 152.594 238.507 150.706 234.007C148.609 229.088 146.301 223.541 146.301 213.076C146.301 202.61 148.609 196.959 150.706 192.145C152.594 187.645 154.272 183.773 154.272 175.4H164.235C164.235 185.97 161.928 191.517 159.83 196.331C157.942 200.831 156.264 204.704 156.264 213.076C156.264 221.448 157.942 225.32 159.83 229.821C161.928 234.739 164.235 240.286 164.235 250.751C164.235 261.321 161.928 266.868 159.83 271.682C157.942 276.182 156.264 280.054 156.264 288.427C156.264 296.799 157.942 300.671 159.83 305.171C161.928 309.986 164.235 315.532 164.235 326.102Z" fill="#FEC05E"/>
</g>
<path d="M174.198 326.102H164.235C164.235 317.835 162.557 313.858 160.669 309.358C158.572 304.439 156.264 298.892 156.264 288.427C156.264 277.961 158.572 272.31 160.669 267.496C162.557 262.996 164.235 259.124 164.235 250.751C164.235 242.484 162.557 238.507 160.669 234.007C158.572 229.088 156.264 223.541 156.264 213.076C156.264 202.61 158.572 196.959 160.669 192.145C162.557 187.645 164.235 183.773 164.235 175.4H174.198C174.198 185.97 171.891 191.517 169.793 196.331C167.906 200.831 166.228 204.704 166.228 213.076C166.228 221.448 167.906 225.32 169.793 229.821C171.891 234.739 174.198 240.286 174.198 250.751C174.198 261.321 171.891 266.868 169.793 271.682C167.906 276.182 166.228 280.054 166.228 288.427C166.228 296.799 167.906 300.671 169.793 305.171C171.786 309.986 174.198 315.532 174.198 326.102Z" fill="#EBA840"/>
<g opacity="0.95">
<path opacity="0.95" d="M144.309 326.102H134.346C134.346 317.835 132.668 313.858 130.78 309.358C128.682 304.439 126.375 298.892 126.375 288.427C126.375 277.961 128.682 272.31 130.78 267.496C132.668 262.996 134.346 259.124 134.346 250.751C134.346 242.484 132.668 238.507 130.78 234.007C128.682 229.088 126.375 223.541 126.375 213.076C126.375 202.61 128.682 196.959 130.78 192.145C132.668 187.645 134.346 183.773 134.346 175.4H144.309C144.309 185.97 142.001 191.517 139.904 196.331C138.016 200.831 136.338 204.704 136.338 213.076C136.338 221.448 138.016 225.32 139.904 229.821C142.001 234.739 144.309 240.286 144.309 250.751C144.309 261.321 142.001 266.868 139.904 271.682C138.016 276.182 136.338 280.054 136.338 288.427C136.338 296.799 138.016 300.671 139.904 305.171C142.001 309.986 144.309 315.532 144.309 326.102Z" fill="#FEC05E"/>
</g>
<path d="M154.272 326.102H144.309C144.309 317.835 142.631 313.858 140.743 309.358C138.645 304.439 136.338 298.892 136.338 288.427C136.338 277.961 138.645 272.31 140.743 267.496C142.631 262.996 144.309 259.124 144.309 250.751C144.309 242.484 142.631 238.507 140.743 234.007C138.645 229.088 136.338 223.541 136.338 213.076C136.338 202.61 138.645 196.959 140.743 192.145C142.631 187.645 144.309 183.773 144.309 175.4H154.272C154.272 185.97 151.965 191.517 149.867 196.331C147.979 200.831 146.301 204.704 146.301 213.076C146.301 221.448 147.979 225.32 149.867 229.821C151.965 234.739 154.272 240.286 154.272 250.751C154.272 261.321 151.965 266.868 149.867 271.682C147.979 276.182 146.301 280.054 146.301 288.427C146.301 296.799 147.979 300.671 149.867 305.171C151.965 309.986 154.272 315.532 154.272 326.102Z" fill="#EBA840"/>
<g opacity="0.95">
<path opacity="0.95" d="M124.382 326.102H114.419C114.419 317.835 112.741 313.858 110.853 309.358C108.756 304.439 106.449 298.892 106.449 288.427C106.449 277.961 108.756 272.31 110.853 267.496C112.741 262.996 114.419 259.124 114.419 250.751C114.419 242.484 112.741 238.507 110.853 234.007C108.756 229.088 106.449 223.541 106.449 213.076C106.449 202.61 108.756 196.959 110.853 192.145C112.741 187.645 114.419 183.773 114.419 175.4H124.382C124.382 185.97 122.075 191.517 119.978 196.331C118.09 200.831 116.412 204.704 116.412 213.076C116.412 221.448 118.09 225.32 119.978 229.821C122.075 234.739 124.382 240.286 124.382 250.751C124.382 261.321 122.075 266.868 119.978 271.682C118.09 276.182 116.412 280.054 116.412 288.427C116.412 296.799 118.09 300.671 119.978 305.171C122.075 309.986 124.382 315.532 124.382 326.102Z" fill="#FEC05E"/>
</g>
<path d="M134.345 326.102H124.382C124.382 317.835 122.704 313.858 120.817 309.358C118.719 304.439 116.412 298.892 116.412 288.427C116.412 277.961 118.719 272.31 120.817 267.496C122.704 262.996 124.382 259.124 124.382 250.751C124.382 242.484 122.704 238.507 120.817 234.007C118.719 229.088 116.412 223.541 116.412 213.076C116.412 202.61 118.719 196.959 120.817 192.145C122.704 187.645 124.382 183.773 124.382 175.4H134.345C134.345 185.97 132.038 191.517 129.941 196.331C128.053 200.831 126.375 204.704 126.375 213.076C126.375 221.448 128.053 225.32 129.941 229.821C132.038 234.739 134.345 240.286 134.345 250.751C134.345 261.321 132.038 266.868 129.941 271.682C128.053 276.182 126.375 280.054 126.375 288.427C126.375 296.799 128.053 300.671 129.941 305.171C132.038 309.986 134.345 315.532 134.345 326.102Z" fill="#EBA840"/>
<path d="M134.555 190.051C148.63 190.051 160.04 177.729 160.04 162.527C160.04 147.326 148.63 135.003 134.555 135.003C120.48 135.003 109.071 147.326 109.071 162.527C109.071 177.729 120.48 190.051 134.555 190.051Z" fill="white"/>
<path d="M167.067 188.796C181.141 188.796 192.551 176.473 192.551 161.272C192.551 146.071 181.141 133.748 167.067 133.748C152.992 133.748 141.582 146.071 141.582 161.272C141.582 176.473 152.992 188.796 167.067 188.796Z" fill="white"/>
<path d="M224.538 52.4315C196.327 54.0013 172.206 60.6992 161.194 69.0715C158.257 71.2692 154.796 72.7344 151.126 72.7344H147.874C144.204 72.7344 140.743 71.2692 137.806 69.0715C126.794 60.6992 102.673 54.0013 74.4616 52.4315C35.2382 50.2338 2.83167 58.92 2.09754 71.6878C1.78292 76.8159 6.81694 81.944 15.4167 86.2348C19.6117 88.3279 22.4434 92.4094 22.6531 97.0141L24.3311 133.538C24.7506 144.108 33.5602 149.76 43.7331 153.109C63.24 157.923 83.4809 159.493 103.512 157.714L106.868 157.4C111.692 156.981 116.517 155.934 120.921 154.051C127.424 151.225 132.772 146.934 133.926 139.608C133.926 139.608 139.275 109.154 142.316 91.5721C142.945 88.0139 145.987 85.3975 149.552 85.5022H149.657C153.223 85.6068 156.16 88.1185 156.789 91.5721C159.83 109.154 165.179 139.608 165.179 139.608C166.333 146.934 171.786 151.225 178.183 154.051C182.588 156.039 187.413 156.981 192.237 157.4L195.593 157.714C215.624 159.493 235.76 157.923 255.372 153.109C265.545 149.76 274.354 144.108 274.774 133.538L276.452 97.0141C276.662 92.3047 279.493 88.3279 283.688 86.2348C292.288 81.944 297.322 76.8159 297.007 71.6878C296.273 58.92 263.867 50.2338 224.538 52.4315Z" fill="#2A2827" stroke="black" stroke-width="4" stroke-miterlimit="10"/>
<path d="M267.433 246.146L138.646 240.39L139.17 230.134L267.957 232.541L267.433 246.146Z" fill="#88664B" stroke="#A67C52" stroke-width="3" stroke-miterlimit="10"/>
<path d="M181.959 174.877C178.079 183.04 173.254 188.377 166.018 188.377C160.145 188.377 154.586 184.924 150.496 178.644L149.448 177.075L148.399 178.644C144.309 184.924 138.75 188.377 132.877 188.377C125.641 188.377 121.551 183.04 117.565 174.877H111.797C116.097 185.447 123.858 192.668 132.877 192.668C139.065 192.668 144.938 191.308 149.448 185.133C153.957 191.308 159.83 192.668 166.018 192.668C174.932 192.668 182.798 185.552 187.098 174.877H181.959Z" fill="#2A2827"/>
</g>
<defs>
<clipPath id="clip0">
<rect width="299" height="416" fill="white"/>
</clipPath>
</defs>
</svg>
