<svg xmlns="http://www.w3.org/2000/svg" viewBox="0 0 285.13 334.8"><title>CosyBenLogo</title><path d="M775,299.56a121.06,121.06,0,0,0-7.06-30.79,6.75,6.75,0,0,0-8.52-4c-5.14,1.82-13.2,6.72-23.57,19.56a6.77,6.77,0,0,1-5.26,2.52H635.33a6.77,6.77,0,0,1-5.26-2.52c-10.36-12.83-18.42-17.74-23.56-19.56a6.75,6.75,0,0,0-8.53,4,114.34,114.34,0,0,0-6.71,30.58,6.58,6.58,0,0,1-.21,1.25c-38.85,143.73-46,268.31-21,289.27,23,19.33,99.39,3.08,111.39.37a6.72,6.72,0,0,1,3,0c12,2.71,88.38,19,111.39-.37,25-21,18.21-145.43-20.65-289.17A6.73,6.73,0,0,1,775,299.56Z" transform="translate(-540.44 -264.43)" fill="#fff"/><path d="M687.9,583.73h-10c0-7.94,1.23-10.86,2.85-15.48,1.7-4.82,5.5-9.31,5.5-19.37s-3.22-15.58-5-20.37c-2-5.37-3.35-8.83-3.35-16.77s1.1-11.23,2.85-15.48c1.95-4.73,5.38-9.19,5.38-19.25s-3.12-14.75-5.25-20.87a42.71,42.71,0,0,1-3-16.39h10c0,10.06,3.1,13.39,5.48,20.39A45.79,45.79,0,0,1,696,476.75c0,7.94-1.51,11.53-3,16-2,6-5.1,8.92-5.1,19s3.85,15.39,6,21.77c1.49,4.47,2.13,7.31,2.13,15.25a35.62,35.62,0,0,1-3.12,15.75C690.75,569.88,687.9,573.67,687.9,583.73Z" transform="translate(-540.44 -264.43)" fill="#fec05e"/><g opacity="0.95"><path d="M687.9,583.73h-10a33.38,33.38,0,0,0-3.57-16,47.5,47.5,0,0,1,0-40.06,37.51,37.51,0,0,0,0-31.94,47.49,47.49,0,0,1,0-40.06,33.37,33.37,0,0,0,3.57-16h10a43.24,43.24,0,0,1-4.43,20,37.5,37.5,0,0,0,0,31.94,47.49,47.49,0,0,1,0,40.06,37.51,37.51,0,0,0,0,31.94A43.23,43.23,0,0,1,687.9,583.73Z" transform="translate(-540.44 -264.43)" fill="#fec05e"/></g><path d="M754.57,314.51c-26.95,1.47-49.91,7.87-60.42,15.89a15.94,15.94,0,0,1-9.62,3.53h-3.07a15.94,15.94,0,0,1-9.62-3.53c-10.51-8-33.47-14.42-60.42-15.89-37.43-2-68.31,6.18-69,18.38-.27,4.94,4.47,9.78,12.69,13.91A12.26,12.26,0,0,1,562,357.14l1.56,34.94c.45,10.07,8.8,15.49,18.52,18.71a173.31,173.31,0,0,0,57,4.36l3.22-.29a43.06,43.06,0,0,0,13.43-3.22c6.17-2.69,11.34-6.81,12.42-13.84,0,0,5.09-29.1,8-45.91a7,7,0,0,1,6.95-5.8h.12a7,7,0,0,1,6.75,5.8c2.86,16.81,8,45.91,8,45.91,1.09,7,6.26,11.15,12.43,13.84a43.06,43.06,0,0,0,13.43,3.22l3.22.29a173.31,173.31,0,0,0,57-4.36c9.72-3.22,18.07-8.64,18.52-18.71L804,357.14a12.26,12.26,0,0,1,6.89-10.34c8.22-4.14,13-9,12.69-13.91C822.89,320.69,792,312.46,754.57,314.51Z" transform="translate(-540.44 -264.43)" fill="#2a2827" stroke="#000" stroke-miterlimit="10" stroke-width="4"/><path d="M713.94,431.52c-3.74,7.79-8.27,12.9-15.2,12.9-5.62,0-10.88-3.32-14.81-9.34l-1-1.51-1,1.51c-3.93,6-9.19,9.34-14.81,9.34-6.93,0-10.84-5.11-14.58-12.9h-5.48c4.08,10.14,11.53,17,20.06,17,5.91,0,11.47-1.29,15.8-7.21,4.33,5.92,9.89,7.21,15.8,7.21,8.53,0,16-6.83,20.06-17Z" transform="translate(-540.44 -264.43)" fill="#2a2827"/></svg>