<svg xmlns="http://www.w3.org/2000/svg" viewBox="0 0 343.56 248"><title>Dab</title><path d="M274,248c8-31.4,19.24-60.12,23.81-93,4-29,2-57-5-85-1-9-4-18-7-27-2-4-3-7-5-11-3-4-5-10-10-12-8,8-5,20-10,30a3.49,3.49,0,0,1-2,1,229.12,229.12,0,0,1-28-7c-23-8-45-16-68-21a101,101,0,0,0-49-23c-2,0-5,2-5,4,2,12,8,23,5,36s-8,24-16,36c-30,44-62,81-71,134a227.41,227.41,0,0,0-3,38Z" fill="#fff"/><path d="M105.81,99.94l-53.17-19a57.13,57.13,0,0,0-18.29-3.48c-12-.19-23.49,3.12-31.11,13.62l-.56.78C-1.67,97.82-.61,106,5,110.11l59.43,37.63A4.36,4.36,0,0,0,70,147l37.54-40A4.36,4.36,0,0,0,105.81,99.94Z" fill="#2a2827"/><path d="M295,91.34c-20.22-2.7-38.59-1.1-47.79,3.6a12.75,12.75,0,0,1-8.05,1.37l-2.44-.44a13.45,13.45,0,0,1-7.28-4.15c-7.52-7.88-25.7-16.54-48.48-22.09-32.92-8-62.62-6.51-64.92,3.75-.93,4.16,2.89,9,10,13.87a10.59,10.59,0,0,1,5,9.78l-3.26,29.55c-.94,8.5,6,14.1,14.46,18a162.58,162.58,0,0,0,49.3,10.16l2.75.13a38.36,38.36,0,0,0,11.64-1.08c5.43-1.45,10.19-4.12,12-9.53,0,0,7.81-22.25,12.24-35.06a5.55,5.55,0,0,1,6.3-3.59l.09,0a5.65,5.65,0,0,1,4.64,5.43c.17,13.42.57,36.57.57,36.57,0,5.55,3.53,9.28,8,12a33,33,0,0,0,10,3.83l2.42.54a127.87,127.87,0,0,0,42.59,2.31c7.3-1.43,13.81-4.59,15.3-11.89l5.18-25.3a9,9,0,0,1,6-6.72c6.13-2,9.92-4.95,10.31-8.54C342.48,105,322.1,95,295,91.34Z" fill="#2a2827" stroke="#000" stroke-miterlimit="10" stroke-width="4"/><path d="M248.24,182.42c-3.72,5.93-7.67,9.63-12.68,8.79-4.2-.7-7.73-4.28-9.86-10.17l-.54-1.5-1,1.19c-4.16,4.81-9.08,7.07-13.92,6.26-6.17-1-8.88-6.52-11-14.7l-5.25-1.08c2.15,10.67,8,18.39,15.6,19.56,5.09.78,9.94.33,14.39-4.37,2.48,5.8,6.57,7.6,11,8.28,6.16.95,12.34-3.85,16.55-11.6Z" fill="#2a2827"/><path d="M118.85,106,53.4,83.64c-19.09-8.22-38.65-4.82-47.54,8.26l-.49.73c-3.8,5.6-.84,14.24,6.61,19.3L82.85,156Z" fill="#fff"/><path d="M273.4,192.92a1.55,1.55,0,0,0-.77-2.33l-47.3-16.51c-15.55-5.43-33.14.66-42.74,14.8l-.53.79a13,13,0,0,0,3.08,18.1l52.2,35.47a1.55,1.55,0,0,0,2.15-.41Z" fill="#2a2827"/><path d="M273.7,193.53l-47.09-17a34.64,34.64,0,0,0-40.39,13.12l-.49.73a12.25,12.25,0,0,0,3.25,17l51.49,35Z" fill="#fff"/><path d="M11.61,85.07h2.18a0,0,0,0,1,0,0V95.47a1.09,1.09,0,0,1-1.09,1.09h0a1.09,1.09,0,0,1-1.09-1.09V85.07A0,0,0,0,1,11.61,85.07Z" transform="translate(-75.39 65.34) rotate(-65.91)" fill="#2a2827"/><path d="M28.74,88h0c-.4.49-1.3.42-2-.16l-8-6.63,2.28-1,7.14,5.86C28.9,86.66,29.15,87.53,28.74,88Z" fill="#2a2827"/></svg>