<svg width="368" height="266" viewBox="0 0 368 266" fill="none" xmlns="http://www.w3.org/2000/svg">
<path d="M74.2803 266C65.7183 232.394 53.7314 201.677 48.8082 166.466C44.5271 135.428 46.6677 105.461 54.1595 75.4939C55.2297 65.8615 58.4405 56.2292 61.6513 46.5969C63.7918 42.3158 64.8621 39.105 67.0026 34.824C70.2134 30.543 72.3539 24.1214 77.7052 21.9809C86.2673 30.543 83.0565 43.3861 88.4078 54.0887C88.4078 54.0887 89.478 55.1589 90.5483 55.1589C101.251 53.0184 110.883 50.8779 120.516 47.6671C145.132 39.105 168.677 30.543 193.293 25.1917C208.277 12.3485 226.471 3.78646 245.736 0.575684C247.876 0.575684 251.087 2.7162 251.087 4.85672C248.947 17.6998 242.525 29.4727 245.736 43.3861C248.947 57.2994 254.298 69.0723 262.86 81.9154C294.968 129.007 329.216 168.606 338.849 225.33C340.989 239.137 342.273 252.515 342.059 266H74.2803Z" fill="white"/>
<path d="M254.298 107.495L311.236 87.1598C317.551 84.9122 324.079 83.5209 330.822 83.4139C343.665 83.1998 355.973 86.7317 364.107 97.9694L364.749 98.8256C369.351 105.247 368.281 114.023 362.18 118.411L298.607 158.653C296.68 159.83 294.219 159.509 292.721 157.904L252.586 115.094C250.124 112.632 251.087 108.672 254.298 107.495Z" fill="#2A2827"/>
<path d="M51.8048 98.2907C73.4241 95.401 93.1169 97.1134 102.963 102.144C105.639 103.535 108.636 104.177 111.632 103.642L114.201 103.214C117.198 102.679 119.873 100.966 122.014 98.7188C130.041 90.2638 149.52 81.0595 173.921 75.0661C209.133 66.504 240.92 68.1094 243.381 79.026C244.345 83.5211 240.278 88.6584 232.679 93.9026C229.04 96.3642 226.899 100.324 227.327 104.391L230.859 136.071C231.823 145.168 224.438 151.162 215.341 155.336C198.109 161.757 180.343 165.396 162.577 166.252L159.58 166.359C155.406 166.573 151.125 166.252 147.165 165.182C141.386 163.684 136.248 160.794 134.322 155.014C134.322 155.014 125.974 131.148 121.265 117.448C120.301 114.666 117.412 113.06 114.522 113.595H114.415C111.525 114.131 109.492 116.592 109.492 119.375C109.278 133.716 108.85 158.546 108.85 158.546C108.85 164.54 105.104 168.5 100.288 171.389C96.9698 173.423 93.3309 174.707 89.585 175.456L87.0164 175.992C71.8187 179.416 56.4069 180.166 41.4233 178.453C33.6104 176.955 26.6537 173.53 25.0483 165.717L19.483 138.64C18.7338 135.215 16.2722 132.539 13.0614 131.469C6.53281 129.328 2.46584 126.224 2.03773 122.372C0.967468 112.953 22.8008 102.251 51.8048 98.2907Z" fill="#2A2827" stroke="black" stroke-width="4" stroke-miterlimit="10"/>
<path d="M101.893 195.791C105.853 202.106 110.134 206.066 115.485 205.209C119.981 204.46 123.726 200.607 126.081 194.293L126.616 192.687L127.686 193.972C132.182 199.109 137.426 201.571 142.563 200.714C149.199 199.644 152.088 193.758 154.336 184.981L160.008 183.804C157.654 195.256 151.446 203.497 143.312 204.781C137.854 205.638 132.717 205.102 127.901 200.072C125.225 206.28 120.837 208.206 116.128 208.955C109.492 209.919 102.963 204.781 98.3613 196.54L101.893 195.791Z" fill="#2A2827"/>
<path d="M240.278 114.023L310.38 90.0495C330.822 81.2734 351.692 84.9123 361.217 98.9327L361.752 99.6819C365.819 105.675 362.609 114.88 354.689 120.338L278.807 167.536L240.278 114.023Z" fill="white"/>
<path d="M74.9221 207.029C74.2799 206.173 74.708 204.888 75.7783 204.567L126.402 186.908C142.991 181.129 161.827 187.657 172.102 202.748L172.637 203.604C177.025 210.026 175.527 218.802 169.319 222.976L113.451 260.97C112.702 261.505 111.632 261.291 111.097 260.542L74.9221 207.029Z" fill="#2A2827"/>
<path d="M74.601 207.671L125.01 189.477C140.957 183.697 158.723 189.477 168.249 203.497L168.784 204.246C172.851 210.24 171.245 218.374 165.359 222.441L110.241 259.9L74.601 207.671Z" fill="white"/>
</svg>
