<svg xmlns="http://www.w3.org/2000/svg" viewBox="0 0 54 144"><title>NoodeBase</title><path d="M54,72a43.23,43.23,0,0,0-4.43-20A33.37,33.37,0,0,1,46,36a33.37,33.37,0,0,1,3.57-16A43.24,43.24,0,0,0,54,0H8A33.37,33.37,0,0,1,4.43,16,43.24,43.24,0,0,0,0,36,43.24,43.24,0,0,0,4.43,56,33.37,33.37,0,0,1,8,72,33.38,33.38,0,0,1,4.43,88,43.23,43.23,0,0,0,0,108a43.23,43.23,0,0,0,4.43,20A33.38,33.38,0,0,1,8,144H54a43.23,43.23,0,0,0-4.43-20A33.38,33.38,0,0,1,46,108a33.38,33.38,0,0,1,3.57-16A43.23,43.23,0,0,0,54,72Z" fill="#fec05e"/></svg>