<svg xmlns="http://www.w3.org/2000/svg" viewBox="0 0 209.36 187.83"><title>Noodles</title><ellipse cx="94.7" cy="81.16" rx="92.2" ry="24.3" fill="#fdd99f" stroke="#000" stroke-miterlimit="10" stroke-width="5"/><polygon points="206.14 14.59 84.92 34.56 83.34 24.94 204.03 1.76 206.14 14.59" fill="#88664b" stroke="#a67c52" stroke-miterlimit="10" stroke-width="3"/><polygon points="207.21 55.46 84.48 49.95 84.91 40.21 207.79 42.47 207.21 55.46" fill="#88664b" stroke="#a67c52" stroke-miterlimit="10" stroke-width="3"/><path d="M94.7,185.27c25.05,0,45.37,2.56,45.37-24.45H49.34C49.34,187.82,69.65,185.27,94.7,185.27Z" fill="#fff" stroke="#000" stroke-miterlimit="10" stroke-width="5"/><path d="M94.7,105.46c-49.34,0-89.62-10.21-92.08-23.05H2.5c0,50.07,13,90.67,92.2,90.67,75.51,0,92.2-40.59,92.2-90.67h-.12C184.33,95.24,144,105.46,94.7,105.46Z" fill="#fff" stroke="#000" stroke-miterlimit="10" stroke-width="5"/></svg>