<svg xmlns="http://www.w3.org/2000/svg" viewBox="0 0 54 144"><title>NoodeBase2</title><path d="M46,72c0-10.06,2.5-13,5-19.38,1.74-4.38,3-8.67,3-16.61s0-10.16-2.73-16C49.1,15.37,46,10.06,46,0H0C0,7.94,1.05,10.47,2.67,15.67,4.18,20.55,8.33,25.94,8.33,36S4.67,50,2.83,56.5C1.55,61,0,64.06,0,72S1.12,82.75,2.67,88.33C4,93.26,8.33,98.61,8.33,108.67S4.12,121.55,2.5,128.5C1.43,133.09,0,136.06,0,144H46c0-10.06,2.67-13.33,5.09-19.53,1.72-4.39,2.9-7.69,2.9-15.63s-.83-11.94-2.53-16.34C49.33,87,46,82.06,46,72Z" fill="#fec05e"/></svg>