<svg xmlns="http://www.w3.org/2000/svg" viewBox="0 0 54 144"><title>NoodleBase2</title>
<path d="M0,72A43.23,43.23,0,0,1,4.43,52,33.37,33.37,0,0,0,8,36,33.37,33.37,0,0,0,4.43,20,43.24,43.24,0,0,1,0,
  0H46a33.37,33.37,0,0,0,3.57,16A43.24,43.24,0,0,1,54,36a43.24,43.24,0,0,1-4.43,20A33.37,33.37,0,0,0,46,
  72a33.38,33.38,0,0,0,3.57,16A43.23,43.23,0,0,1,54,108a43.23,43.23,0,0,1-4.43,20A33.38,33.38,0,0,0,46,
  144H0a43.23,43.23,0,0,1,4.43-20A33.38,33.38,0,0,0,8,108,33.38,33.38,0,0,0,4.43,92,43.23,43.23,0,0,1,0,72Z"
  fill="#fec05e"/></svg>
