<svg xmlns="http://www.w3.org/2000/svg" viewBox="0 0 480 170"><title>BiliBili</title><path d="M346.92,51.36c-.29,18.52,1.47,36.92,3.11,55.34.26,2.91.95,3.83,4.2,3.62a87.51,87.51,0,0,1,46.34,9.81c11.35,5.88,12.36,13.6,2.85,22.31-11,10.07-24.76,14-39,16.41a174,174,0,0,1-20.88,1.88c-3.16.15-4.28-.94-4.55-4.2-2.87-35.36-6.83-70.59-13-105.55-.78-4.43-1.62-8.85-2.61-13.23-.47-2.1-.27-3.37,2-4.24,5.91-2.25,11.73-4.74,17.58-7.16,3.09-1.28,4.1-.3,4,3C346.79,36.7,346.92,44,346.92,51.36Zm14.42,72.79c1,7.24,1.87,13.64,2.68,20,.25,2,.56,3.5,2.92,1.74q7.4-5.51,14.77-11c2.06-1.55,2-2.81-.52-3.81C374.86,128.62,368.61,126,361.33,124.15Z" fill="#fff"/><path d="M193.13,49.33c-.33,19,1.55,37.92,3.14,56.83.26,3.12,1,4.38,4.78,4.14a86.71,86.71,0,0,1,45.84,9.8c11.35,5.88,12.25,14.27,2.55,22.74-11.19,9.77-24.9,13.85-39.23,16-6.24.95-12.6,1.13-18.88,1.86-4.19.49-5.9-1-6.21-5.34-1.79-24.92-4.62-49.73-8.1-74.47-1.95-13.85-4-27.69-7-41.35-.83-3.78,0-5.74,3.8-7,5.2-1.72,10.2-4.07,15.28-6.17,3-1.23,4.18-.5,4.07,2.94C193,36,193.13,42.67,193.13,49.33Zm17.61,75.33c-3.26-.35-2.85,1.16-2.72,2.18.74,5.93,1.56,11.86,2.39,17.78.26,1.86,1,2.76,2.9,1.32,5-3.82,10.12-7.56,15.14-11.4.79-.61,2.43-1.81.6-2.6C222.66,129.19,216.12,126.77,210.74,124.66Z" fill="#fff"/><path d="M436.8,40.59c4-1.25,5.4,1.1,5.75,6,2,27.86,4.26,55.7,6.45,83.54.33,4.14.64,8.29,1.1,12.42.27,2.49-.34,3.83-3.16,3.5a26,26,0,0,0-5-.14c-2.86.21-3.64-1.18-3.86-3.82-2.73-32.31-6.09-64.54-11.9-96.46-.49-2.72.15-4.13,3-4.33C431.36,41.14,433.51,40.89,436.8,40.59Z" fill="#fff"/><path d="M296,139.35c.17,1.32.27,2.65.51,4,.36,1.92-.29,2.88-2.32,2.73h-.5c-10.38-.58-8.66,1.56-9.6-8.55-2.83-30.51-6.07-61-11.47-91.13-.74-4.11.69-4.8,4-5.22,11.82-1.51,11.58-1.56,12.44,10.1,2.16,29.39,4.54,58.76,6.83,88.14Z" fill="#fff"/><path d="M419.42,93.86c3.73-.51,5.3.88,5.87,4.79,2.33,16,3.58,32.05,5.51,48.06.27,2.23-.26,3.16-2.71,3.58-9.42,1.61-9.38,1.72-11.16-7.44-2.7-13.87-5.23-27.77-8.28-41.57-1-4.4,0-6.19,4.38-6.43A60.93,60.93,0,0,0,419.42,93.86Z" fill="#fff"/><path d="M266,93.86c3.62-.58,5,1.06,5.57,4.56,2.36,15.94,3.71,32,5.47,48,.26,2.35-.11,3.86-2.95,3.86a27.09,27.09,0,0,0-5.43.65c-3,.63-4.06-.77-4.59-3.56-2.94-15.49-5.91-31-9.13-46.41-.82-4-.2-5.95,4.18-6.07A55.09,55.09,0,0,0,266,93.86Z" fill="#fff"/><path d="M472,125.12c0,7.82-.14,15.64.07,23.45.08,3.17-.72,4.76-4.11,4.3a8.06,8.06,0,0,0-2.49,0c-4.66.86-6.24-.94-6.56-5.75-1-15.25-2.55-30.47-4.11-45.68-.41-3.95.86-5.24,4.74-5.42,11.64-.56,11.81-.53,12.17,11.12,0,1.16.06,2.33.06,3.49q0,7.23,0,14.47Z" fill="#fff"/><path d="M318.52,125.33c0,7.81-.15,15.62.08,23.41.09,3-.57,4.1-3.74,4.18-8.63.21-8.72.36-9.57-8.3-1.43-14.54-2.65-29.1-4.14-43.63-.36-3.49.81-4.63,4.22-4.9,12.35-1,12.52-.93,12.71,11.3,0,2.33.09,4.65.1,7,0,3.65,0,7.31,0,11Z" fill="#fff"/><path d="M423,84.18c.48,2-.48,3-3.14,3.12-2.37.13-4.23.36-4.53-2.81-.46-5-1.09-9.9-1.75-14.83-.25-1.88-.89-3.88,2.09-3.77,2.25.09,5.28-1.16,5.67,2.84C421.88,73.68,422.45,78.63,423,84.18Z" fill="#fff"/><path d="M269.15,82.56c.83,2.83.43,5.16-4.14,4.79-2.05-.16-3-.69-3.19-2.79-.52-5-1.2-9.92-1.87-14.87-.31-2.28-.14-4,2.85-3.87,2.28.13,4.82-.46,5.05,3.14C268.13,73.28,268.66,77.59,269.15,82.56Z" fill="#fff"/><path d="M471.07,79.1c0,2,0,4,0,6,0,2.17.39,4.32-3.09,4.24-3.06-.07-4.44-.87-4.35-4.23.14-4.62-.22-9.26-.47-13.88-.13-2.28.59-3.51,3.06-3.18,2.12.28,5-.67,4.87,3.16C471,73.8,471.08,76.45,471.07,79.1Z" fill="#fff"/><path d="M460.76,79.11c0,2.48-.07,5,0,7.44.09,2.69-1.85,2.68-3.65,3-2.39.4-2.76-1.07-2.88-2.92-.32-4.79-.58-9.58-1.08-14.35-.29-2.77.66-3.85,3.45-4s4.12.48,4,3.42c-.1,2.48,0,5,0,7.44Z" fill="#fff"/><path d="M413,84.87c.54,2.87-1.51,3.21-3.49,3.79-2.5.73-2.79-1-3.09-2.64-.93-5-1.6-10.12-2.75-15.09-.77-3.34,1.55-2.93,3.33-3.39,2-.52,3.6-.53,3.94,2.14C411.56,74.74,412.3,79.8,413,84.87Z" fill="#fff"/><path d="M259.19,83.58c.59,3.06-.48,4.74-3.69,5.15-3.55.45-2.51-2.49-2.88-4-1-4.35-1.61-8.81-2.57-13.18-.67-3,1-3.58,3.36-4.09,2.62-.55,3.61.31,3.91,2.86C257.82,74.73,258.55,79.15,259.19,83.58Z" fill="#fff"/><path d="M317.34,78.95c0,2-.07,4,0,6,.1,2.51.1,4.52-3.52,4.38-3.05-.12-4-1.18-3.92-4.15.14-4.47-.07-9-.21-13.44-.07-2.21.05-4,3.06-3.74,2.34.21,4.84-.13,4.62,3.5C317.22,74,317.34,76.46,317.34,78.95Z" fill="#fff"/><path d="M307,78.76c0,2.5-.12,5,0,7.49s-1.4,2.92-3.37,3.27c-2.42.43-2.81-.84-2.94-2.78-.33-5.15-.65-10.29-1.18-15.42-.3-2.88,1.58-2.83,3.42-3s3.84-.36,3.85,2.45,0,5.32,0,8Z" fill="#fff"/><path d="M105.11,36.24h24.57c16.11,0,26.81,9.89,27.13,26.13.41,21.15.21,42.32,0,63.48a28.54,28.54,0,0,1-6.23,17.61c-3.51,4.5-8,7.93-13.72,8.3-5.17.33-9.24.37-12.3,6.1-2.64,4.93-10.9,3.45-13-2-1.35-3.45-3.22-3.86-6.3-3.84q-24.74.15-49.48,0c-2.65,0-4.64,0-5.57,3.33-1,3.54-4.12,5.27-7.73,5.23a7.65,7.65,0,0,1-7.65-5.4C34,152.66,32.7,152,30.16,152c-15.49-.28-25.64-9.85-26-25.53-.45-21.48-.4-43,0-64.47.23-12.31,8.83-27,27-25.83,8,.5,16,.08,25.49.08-4.4-4.44-7.89-8.05-11.5-11.55-2-1.92-3-4-2-6.7,1.35-3.49,5.43-4,8.62-.9C57.19,22.29,62.52,27.57,67.67,33c2.24,2.36,4.69,2.95,7.83,3.37,10.67,1.43,19.07-1.62,25.43-10.51,2-2.81,4.89-5,7.34-7.48s5.36-5.27,8.91-1.89,1.08,6.22-1.57,8.87C112.37,28.61,109.24,32,105.11,36.24ZM81,51.69q-24,0-48,0c-7.93,0-11.59,3.12-11.67,10.91q-.29,31.72,0,63.44c.06,7.34,4,10.83,11.37,10.84q47.71,0,95.41,0c7.47,0,11.29-3.24,11.38-10.79q.36-32,0-63.94c-.08-7.33-3.8-10.44-11.08-10.46Q104.73,51.65,81,51.69Z" fill="#fff"/><path d="M65.13,83c.34,1.84-.38,2.73-2.26,3.08C54,87.74,45.23,89.44,36.45,91.26c-2.25.47-2.84-.43-3.34-2.38-2.34-9.16-2.39-9.14,7.09-10.93q8.33-1.58,16.64-3.24c6.43-1.28,6.43-1.29,7.67,4.88C64.73,80.72,64.92,81.87,65.13,83Z" fill="#fff"/><path d="M101,74c9,1.73,17.94,3.48,26.91,5.18,1.76.33,1.87,1.35,1.74,2.9-.8,9.43-1.17,9.76-10.56,8-6.53-1.23-13-2.66-19.58-3.73-2.87-.47-3.66-1.53-2.76-4.27a32.55,32.55,0,0,0,1.15-5.86C98.2,74.22,99.22,73.61,101,74Z" fill="#fff"/><path d="M87.87,120.17c-4.53-4.53-10.18-1.54-16.06-.18-3.78.87-6.94-1.81-9.5-4.58-.95-1-2.53-2.21-.67-3.7,1.49-1.19,2.77-2.59,5.12-.66,5.44,4.45,7.17,4,11.3-2.18,1.53-2.3,2.32-3.91,4.61-.43,4.52,6.87,5.13,6.92,11.91,2.27,2.26-1.55,3.39,0,4.75,1,1.64,1.17.52,2.35-.36,3.33A13.76,13.76,0,0,1,87.87,120.17Z" fill="#fff"/></svg>