<?xml version="1.0" encoding="utf-8"?>
<!-- Generator: Adobe Illustrator 21.0.0, SVG Export Plug-In . SVG Version: 6.00 Build 0)  -->
<svg version="1.1" xmlns="http://www.w3.org/2000/svg" xmlns:xlink="http://www.w3.org/1999/xlink" x="0px" y="0px"
	 viewBox="0 0 500 500" style="enable-background:new 0 0 500 500;" xml:space="preserve">
<style type="text/css">
	.st0{fill:#FFFFFF;}
	.st1{fill:#2A2827;stroke:#000000;stroke-width:4;stroke-miterlimit:10;}
	.st2{fill:#2A2827;}
	.st3{fill:#E6E6E6;}
	.st4{fill:#FBB03B;}
</style>
<g id="DabCat">
	<path class="st0" d="M398,499c11.6-45.6,27.9-87.3,34.6-135c5.8-42.1,2.9-82.7-7.3-123.4c-1.5-13.1-5.8-26.1-10.2-39.2
		c-2.9-5.8-4.4-10.2-7.3-16c-4.4-5.8-7.3-14.5-14.5-17.4c-11.6,11.6-7.3,29-14.5,43.5c0,0-1.5,1.5-2.9,1.5
		c-14.5-2.9-27.6-5.8-40.6-10.2c-33.4-11.6-65.3-23.2-98.7-30.5c-20.3-17.4-45-29-71.1-33.4c-2.9,0-7.3,2.9-7.3,5.8
		c2.9,17.4,11.6,33.4,7.3,52.3s-11.6,34.8-23.2,52.3c-43.5,63.9-90,117.6-103.1,194.5c-3,18.8-4.6,36.8-4.4,55.2H398z"/>
	<path class="st1" d="M428.4,271.6c-29.4-3.9-56-1.6-69.4,5.2c-3.6,1.8-7.6,2.7-11.7,2l-3.5-0.6c-4.1-0.7-7.7-3-10.6-6
		c-10.9-11.4-37.3-24-70.4-32.1c-47.8-11.6-90.9-9.4-94.2,5.4c-1.4,6,4.2,13.1,14.6,20.1c5,3.4,7.9,8.7,7.3,14.2l-4.7,42.9
		c-1.4,12.3,8.7,20.5,21,26.1c23.3,8.7,47.5,13.6,71.6,14.7l4,0.2c5.7,0.3,11.4-0.1,16.9-1.6c7.9-2.1,14.8-6,17.4-13.8
		c0,0,11.3-32.3,17.8-50.9c1.3-3.7,5.2-5.9,9.1-5.2c0,0,0.1,0,0.1,0c3.9,0.7,6.7,4,6.7,7.9c0.2,19.5,0.8,53.1,0.8,53.1
		c0,8.1,5.1,13.5,11.6,17.4c4.4,2.7,9.4,4.4,14.5,5.6l3.5,0.8c20.6,4.6,41.5,5.7,61.8,3.4c10.6-2.1,20-6.7,22.2-17.3l7.5-36.7
		c1-4.7,4.3-8.3,8.7-9.7c8.9-2.9,14.4-7.2,15-12.4C497.3,291.4,467.8,276.8,428.4,271.6z"/>
	<path class="st2" d="M360.5,403.8c-5.4,8.6-11.1,14-18.4,12.8c-6.1-1-11.2-6.2-14.3-14.8l-0.8-2.2l-1.5,1.7
		c-6,7-13.2,10.3-20.2,9.1c-9-1.5-12.9-9.5-16-21.3l-7.6-1.6c3.1,15.5,11.5,26.7,22.6,28.4c7.4,1.1,14.4,0.5,20.9-6.3
		c3.6,8.4,9.5,11,16,12c8.9,1.4,17.9-5.6,24-16.8L360.5,403.8z"/>
	<path class="st0" d="M172.7,292.9l-95-32.5c-27.7-11.9-56.1-7-69,12L8,273.5c-5.5,8.1-1.2,20.7,9.6,28l102.9,64L172.7,292.9z"/>
	<g>
		<path class="st3" d="M397.1,419c0.8-1.2,0.3-2.9-1.1-3.4l-68.7-24c-22.6-7.9-48.1,1-62,21.5l-0.8,1.1c-6,8.8-4,20.5,4.5,26.3
			l75.8,51.5c1,0.7,2.4,0.4,3.1-0.6L397.1,419z"/>
		<path class="st0" d="M397.5,419.9l-68.4-24.6c-21.6-7.8-45.7,0.1-58.6,19l-0.7,1.1c-5.5,8.1-3.4,19.2,4.7,24.7l74.7,50.8
			L397.5,419.9z"/>
	</g>
	<path class="st2" d="M26.3,274.2L26.3,274.2c-0.4,0.8-1.3,1.2-2.1,0.8l-13.8-6.2l1.3-2.9l13.8,6.2
		C26.3,272.5,26.6,273.4,26.3,274.2z"/>
	<path class="st2" d="M41.9,266.8L41.9,266.8c-0.6,0.7-1.9,0.6-2.9-0.2l-11.6-9.6l3.3-1.5l10.4,8.5
		C42.1,264.8,42.5,266.1,41.9,266.8z"/>
</g>
<g id="Sparkles">
	<path class="st4" d="M229.7,215.4l7.3,13.3c0.1,0.1,0.2,0.2,0.3,0.3l13.3,7.3c0.5,0.3,0.5,1,0,1.3l-13.3,7.3
		c-0.1,0.1-0.2,0.2-0.3,0.3l-7.3,13.3c-0.3,0.5-1,0.5-1.3,0l-7.3-13.3c-0.1-0.1-0.2-0.2-0.3-0.3l-13.3-7.3c-0.5-0.3-0.5-1,0-1.3
		l13.3-7.3c0.1-0.1,0.2-0.2,0.3-0.3l7.3-13.3C228.6,214.9,229.4,214.9,229.7,215.4z"/>
	<path class="st4" d="M240.4,180.2l4,7.3c0,0.1,0.1,0.1,0.2,0.2l7.3,4c0.3,0.2,0.3,0.6,0,0.7l-7.3,4c-0.1,0-0.1,0.1-0.2,0.2l-4,7.3
		c-0.2,0.3-0.6,0.3-0.7,0l-4-7.3c0-0.1-0.1-0.1-0.2-0.2l-7.3-4c-0.3-0.2-0.3-0.6,0-0.7l7.3-4c0.1,0,0.1-0.1,0.2-0.2l4-7.3
		C239.8,179.9,240.2,179.9,240.4,180.2z"/>
	<path class="st4" d="M203.2,206.1l2.7,4.9c0,0,0.1,0.1,0.1,0.1l4.9,2.7c0.2,0.1,0.2,0.4,0,0.5l-4.9,2.7c0,0-0.1,0.1-0.1,0.1
		l-2.7,4.9c-0.1,0.2-0.4,0.2-0.5,0l-2.7-4.9c0,0-0.1-0.1-0.1-0.1l-4.9-2.7c-0.2-0.1-0.2-0.4,0-0.5l4.9-2.7c0,0,0.1-0.1,0.1-0.1
		l2.7-4.9C202.9,206,203.1,206,203.2,206.1z"/>
</g>
</svg>
