<svg xmlns="http://www.w3.org/2000/svg" viewBox="0 0 356 183"><title>YoutubeAlt</title><path d="M178.45,168c-17.31-1.33-24.77-8.88-27-26a316.72,316.72,0,0,1,0-83.7c2.35-17.61,10.86-25.84,28.41-26.28,39.44-1,78.9-1,118.35-1.25,8,0,16,.68,23.94,1.32,12.55,1,20.47,7.05,23.84,19.21a108.33,108.33,0,0,1,3.32,21.13c1.66,23.13,1.91,46.3-1.42,69.3-2.64,18.21-11.32,25.75-29.63,26.95-6.48.43-13,.95-19.46,1-16.15.14-41.62.36-57.77.36m23.67-31.31c5.26,4.58,10.34,8.49,17,5.19,6.43-3.18,6.52-9.61,6.66-15.62.25-10.32.35-20.64.21-31a62.2,62.2,0,0,0-1.46-13.36c-2-8.56-9.37-11.44-16.95-6.94-1.9,1.13-3.62,2.54-5.89,4.15,0-8.07-.34-15.41.12-22.7.32-5.09-2-5.74-6.14-5.6-3.88.13-6.85-.3-6.77,5.5.33,25.14.14,50.28.14,75.43,0,11.76.11,11.85,12.21,9.86Zm56.17-18.29c-.17,2.58-.26,5-.5,7.49-.29,2.94-1.51,5.16-4.86,5.26-3.51.11-5.24-2-5.49-5.18-.31-4-.24-8-.42-12-.14-2.86,1.22-3.75,3.93-3.69,5.49.13,11,0,16.48.06,2.59,0,4.16-.61,4-3.59-.28-5.81,0-11.69-.74-17.42C331.9,81.09,324.7,74.9,315.09,75c-9.85.08-17.49,6.48-18.19,16.91-.8,11.75-.36,23.58-.25,35.38a19.1,19.1,0,0,0,1.63,6.75c3.07,7.59,10.82,11.86,19.43,10.94,8.26-.89,14.2-6.38,15.63-14.46,1.85-10.35,1.23-11.06-9.28-10.58C323.09,120,322.13,120.2,320.85,120.4Zm-91.78,23.79a47.82,47.82,0,0,1,6.78.05c5.26.8,6.36-1.53,6.29-6.43-.28-17.65,0-35.31-.14-53-.07-9.65,2.25-8.85-9.61-8.94-2.82,0-3.83,1-3.77,3.82.12,6,0,12,0,18,0,9.16.07,18.32,0,27.48,0,3.83-4.07,8.33-7,7.8-4.4-.8-2.44-4.53-2.47-6.92-.19-14.82-.29-29.65,0-44.47.1-4.78-1.55-6.32-6-5.69a9,9,0,0,1-2.49,0c-3.93-.55-5.15,1.06-5.1,5,.2,16.32.07,32.65.11,49a35.2,35.2,0,0,0,.57,7c1.52,7.37,7.65,10.34,14.35,6.83,2.58-1.35,4.82-3.37,7.62-5.37ZM208.38,53,165,53.13l-.12,13.13s11.58.11,14.3.11c0,2.39.06,61.08.07,74.88a2.84,2.84,0,0,0,2.89,2.83l8.2-.15a2.84,2.84,0,0,0,2.79-2.83l.24-74.59s11.34-.14,14.8-.14" fill="#fff"/><path d="M125.42,75.9h12.41v67.63H125.91l-1-5.84a76.82,76.82,0,0,1-7,5.3c-7.24,4.29-14,1.19-14.91-7.18a170.08,170.08,0,0,1-.59-18.46c0-13.33,0-26.65.1-40a5.78,5.78,0,0,1,.47-1.33h12.22q0,2.64,0,5.29c0,15-.08,30,.08,45,0,2.6-1.55,7.39,3,6.76,2.64-.36,4.88-4.5,7-7.16.57-.71.1-2.26.11-3.43q0-20.49,0-41C125.42,79.72,125.42,77.93,125.42,75.9Z" fill="#fff"/><path d="M93.34,110c-.37,7-.22,13.72-1.18,20.26C90.83,139.35,83.72,145,74.78,145S58,139.26,57.42,130.29a302.17,302.17,0,0,1,0-40.35c.64-9.5,7.88-14.82,17.05-14.85,9.62,0,16.18,5.11,17.63,14.86C93.1,96.66,93,103.53,93.34,110Zm-13.19-.06c0-5.49.06-11,0-16.46-.05-3.41-1-6.49-5.11-6.67-4.44-.19-5.69,3-5.74,6.61q-.22,16.71,0,33.42c.05,3.51,1.25,6.92,5.67,6.72s5.16-3.57,5.2-7.15C80.2,120.92,80.16,115.43,80.15,109.94Z" fill="#fff"/><path d="M41.9,143.69H29.36c-2.24-15.39,2-31-3.25-46.06C21,83,16.84,68.16,12,52.67c4.32,0,8.13-.29,11.85.17C25.07,53,26.57,55,27,56.38c2.84,9.9,5.43,19.86,9,29.9q2.37-8.76,4.75-17.52c.48-1.77.9-3.55,1.37-5.32C45.3,51.38,45.3,51.38,58.63,53.12c-.25,1.23-.39,2.48-.75,3.66-1.45,4.77-2.77,9.6-4.51,14.28-8.3,22.35-13.6,45.16-11.17,69.24A20.16,20.16,0,0,1,41.9,143.69Z" fill="#fff"/><path d="M264.26,109.78c0-5.49.18-11-.05-16.47-.18-4.36,2.1-6.1,5.93-6.32,4.22-.24,4.85,2.89,4.88,6,.09,11.15.11,22.3,0,33.45,0,3.21-.42,6.75-4.92,6.61-4.22-.13-6.12-2.4-5.89-6.83C264.48,120.78,264.26,115.27,264.26,109.78Z" fill="#fff"/><path d="M320.53,96.11c.84,4.49-1,5.79-5.36,5.77-4.22,0-5.9-1-5.69-5.51.35-7.42,1.37-9.66,5.72-9.44C321.7,87.25,319.81,92.52,320.53,96.11Z" fill="#fff"/></svg>